<svg width="189" height="106" viewBox="0 0 189 106" fill="none" xmlns="http://www.w3.org/2000/svg">
<rect x="1.23799" y="1.23799" width="186.524" height="103.166" rx="15.2686" stroke="#567A5C" stroke-width="2.47598"/>
<rect x="1.65039" y="80.8828" width="185.699" height="1.21935" fill="#567A5C"/>
<rect x="1.65039" y="75.1055" width="185.699" height="1.21935" fill="#567A5C"/>
<rect x="1.65039" y="86.6602" width="185.699" height="1.21935" fill="#567A5C"/>
<rect x="1.65039" y="69.3262" width="185.699" height="1.21935" fill="#567A5C"/>
<circle cx="30.5373" cy="28.0608" r="7.42795" fill="#567A5C"/>
<path d="M17.235 48.6143C16.839 41.4869 22.5118 35.4902 29.6501 35.4902C37.623 35.4902 43.8401 42.3961 43.0054 50.3251L42.9163 51.1715L30.5364 53.6474L17.3312 50.3461L17.235 48.6143Z" fill="#567A5C"/>
<circle cx="30.5369" cy="32.1873" r="21.8712" stroke="#567A5C" stroke-width="2.47598"/>
<line x1="65.6536" y1="29.3876" x2="68.4236" y2="25.2326" stroke="black" stroke-width="0.461661"/>
<path d="M68.154 25.3605L73.6941 29.0546" stroke="black" stroke-width="0.461661"/>
<path d="M73.4617 29.0519L74.9076 24.7412" stroke="black" stroke-width="0.461661"/>
<line y1="-0.23083" x2="4.99363" y2="-0.23083" transform="matrix(-0.5547 -0.83205 -0.83205 0.5547 84.0918 29.5176)" stroke="black" stroke-width="0.461661"/>
<path d="M81.7815 25.3625L76.2415 29.0565" stroke="black" stroke-width="0.461661"/>
<path d="M76.4719 29.0558L75.026 24.7451" stroke="black" stroke-width="0.461661"/>
<line y1="-0.23083" x2="4.99363" y2="-0.23083" transform="matrix(-0.5547 -0.83205 -0.83205 0.5547 95.6328 29.5176)" stroke="black" stroke-width="0.461661"/>
<path d="M93.3245 25.3625L87.7845 29.0565" stroke="black" stroke-width="0.461661"/>
<path d="M88.0129 29.0558L86.567 24.7451" stroke="black" stroke-width="0.461661"/>
<line y1="-0.23083" x2="4.99363" y2="-0.23083" transform="matrix(-0.5547 -0.83205 -0.83205 0.5547 104.865 29.5176)" stroke="black" stroke-width="0.461661"/>
<path d="M102.555 25.3625L97.0149 29.0565" stroke="black" stroke-width="0.461661"/>
<path d="M97.2473 29.0558L95.8014 24.7451" stroke="black" stroke-width="0.461661"/>
<line x1="65.7197" y1="37.6933" x2="67.5375" y2="34.9666" stroke="black" stroke-width="0.302965"/>
<path d="M67.361 35.0514L70.9966 37.4756" stroke="black" stroke-width="0.302965"/>
<path d="M70.8453 37.4747L71.7942 34.6458" stroke="black" stroke-width="0.302965"/>
<line y1="-0.151482" x2="3.27707" y2="-0.151482" transform="matrix(-0.5547 -0.83205 -0.83205 0.5547 77.8203 37.7793)" stroke="black" stroke-width="0.302965"/>
<path d="M76.3031 35.0534L72.6674 37.4776" stroke="black" stroke-width="0.302965"/>
<path d="M72.8207 37.4767L71.8718 34.6478" stroke="black" stroke-width="0.302965"/>
<line y1="-0.151482" x2="3.27707" y2="-0.151482" transform="matrix(-0.5547 -0.83205 -0.83205 0.5547 85.3926 37.7793)" stroke="black" stroke-width="0.302965"/>
<path d="M83.8793 35.0534L80.2436 37.4776" stroke="black" stroke-width="0.302965"/>
<path d="M80.3949 37.4767L79.446 34.6478" stroke="black" stroke-width="0.302965"/>
<line y1="-0.151482" x2="3.27707" y2="-0.151482" transform="matrix(-0.5547 -0.83205 -0.83205 0.5547 91.4531 37.7793)" stroke="black" stroke-width="0.302965"/>
<path d="M89.9359 35.0534L86.3003 37.4776" stroke="black" stroke-width="0.302965"/>
<path d="M86.4535 37.4767L85.5046 34.6478" stroke="black" stroke-width="0.302965"/>
<line x1="91.3232" y1="37.6933" x2="93.141" y2="34.9666" stroke="black" stroke-width="0.302965"/>
<path d="M92.9645 35.0514L96.6001 37.4756" stroke="black" stroke-width="0.302965"/>
<path d="M96.4489 37.4747L97.3977 34.6458" stroke="black" stroke-width="0.302965"/>
<line y1="-0.151482" x2="3.27707" y2="-0.151482" transform="matrix(-0.5547 -0.83205 -0.83205 0.5547 103.424 37.7793)" stroke="black" stroke-width="0.302965"/>
<path d="M101.907 35.0534L98.271 37.4776" stroke="black" stroke-width="0.302965"/>
<path d="M98.4242 37.4767L97.4753 34.6478" stroke="black" stroke-width="0.302965"/>
<line y1="-0.151482" x2="3.27707" y2="-0.151482" transform="matrix(-0.5547 -0.83205 -0.83205 0.5547 110.996 37.7793)" stroke="black" stroke-width="0.302965"/>
<path d="M109.483 35.0534L105.847 37.4776" stroke="black" stroke-width="0.302965"/>
<path d="M105.998 37.4767L105.05 34.6478" stroke="black" stroke-width="0.302965"/>
<line y1="-0.151482" x2="3.27707" y2="-0.151482" transform="matrix(-0.5547 -0.83205 -0.83205 0.5547 117.057 37.7793)" stroke="black" stroke-width="0.302965"/>
<path d="M115.539 35.0534L111.904 37.4776" stroke="black" stroke-width="0.302965"/>
<path d="M112.057 37.4767L111.108 34.6478" stroke="black" stroke-width="0.302965"/>
<line x1="116.931" y1="37.6933" x2="118.748" y2="34.9666" stroke="black" stroke-width="0.302965"/>
<path d="M118.572 35.0514L122.208 37.4756" stroke="black" stroke-width="0.302965"/>
<path d="M122.056 37.4747L123.005 34.6458" stroke="black" stroke-width="0.302965"/>
<line y1="-0.151482" x2="3.27707" y2="-0.151482" transform="matrix(-0.5547 -0.83205 -0.83205 0.5547 129.031 37.7793)" stroke="black" stroke-width="0.302965"/>
<path d="M127.514 35.0534L123.878 37.4776" stroke="black" stroke-width="0.302965"/>
<path d="M124.032 37.4767L123.083 34.6478" stroke="black" stroke-width="0.302965"/>
<line y1="-0.151482" x2="3.27707" y2="-0.151482" transform="matrix(-0.5547 -0.83205 -0.83205 0.5547 136.604 37.7793)" stroke="black" stroke-width="0.302965"/>
<path d="M135.09 35.0534L131.455 37.4776" stroke="black" stroke-width="0.302965"/>
<path d="M131.606 37.4767L130.657 34.6478" stroke="black" stroke-width="0.302965"/>
<line y1="-0.151482" x2="3.27707" y2="-0.151482" transform="matrix(-0.5547 -0.83205 -0.83205 0.5547 142.664 37.7793)" stroke="black" stroke-width="0.302965"/>
<path d="M141.147 35.0534L137.511 37.4776" stroke="black" stroke-width="0.302965"/>
<path d="M137.664 37.4767L136.716 34.6478" stroke="black" stroke-width="0.302965"/>
<line x1="142.536" y1="37.6933" x2="144.354" y2="34.9666" stroke="black" stroke-width="0.302965"/>
<path d="M144.177 35.0514L147.813 37.4756" stroke="black" stroke-width="0.302965"/>
<path d="M147.662 37.4747L148.611 34.6458" stroke="black" stroke-width="0.302965"/>
<line y1="-0.151482" x2="3.27707" y2="-0.151482" transform="matrix(-0.5547 -0.83205 -0.83205 0.5547 154.637 37.7793)" stroke="black" stroke-width="0.302965"/>
<path d="M153.119 35.0534L149.484 37.4776" stroke="black" stroke-width="0.302965"/>
<path d="M149.637 37.4767L148.688 34.6478" stroke="black" stroke-width="0.302965"/>
<line y1="-0.151482" x2="3.27707" y2="-0.151482" transform="matrix(-0.5547 -0.83205 -0.83205 0.5547 162.209 37.7793)" stroke="black" stroke-width="0.302965"/>
<path d="M160.696 35.0534L157.06 37.4776" stroke="black" stroke-width="0.302965"/>
<path d="M157.211 37.4767L156.262 34.6478" stroke="black" stroke-width="0.302965"/>
<line y1="-0.151482" x2="3.27707" y2="-0.151482" transform="matrix(-0.5547 -0.83205 -0.83205 0.5547 168.27 37.7793)" stroke="black" stroke-width="0.302965"/>
<path d="M166.752 35.0534L163.117 37.4776" stroke="black" stroke-width="0.302965"/>
<path d="M163.27 37.4767L162.321 34.6478" stroke="black" stroke-width="0.302965"/>
<line x1="65.7197" y1="45.0097" x2="67.5375" y2="42.283" stroke="black" stroke-width="0.302965"/>
<path d="M67.361 42.3678L70.9966 44.792" stroke="black" stroke-width="0.302965"/>
<path d="M70.8453 44.7911L71.7942 41.9622" stroke="black" stroke-width="0.302965"/>
<line y1="-0.151482" x2="3.27707" y2="-0.151482" transform="matrix(-0.5547 -0.83205 -0.83205 0.5547 77.8203 45.0957)" stroke="black" stroke-width="0.302965"/>
<path d="M76.3031 42.3698L72.6674 44.794" stroke="black" stroke-width="0.302965"/>
<path d="M72.8207 44.7931L71.8718 41.9642" stroke="black" stroke-width="0.302965"/>
<line y1="-0.151482" x2="3.27707" y2="-0.151482" transform="matrix(-0.5547 -0.83205 -0.83205 0.5547 85.3926 45.0957)" stroke="black" stroke-width="0.302965"/>
<path d="M83.8793 42.3698L80.2436 44.794" stroke="black" stroke-width="0.302965"/>
<path d="M80.3949 44.7931L79.446 41.9642" stroke="black" stroke-width="0.302965"/>
<line y1="-0.151482" x2="3.27707" y2="-0.151482" transform="matrix(-0.5547 -0.83205 -0.83205 0.5547 91.4531 45.0957)" stroke="black" stroke-width="0.302965"/>
<path d="M89.9359 42.3698L86.3003 44.794" stroke="black" stroke-width="0.302965"/>
<path d="M86.4535 44.7931L85.5046 41.9642" stroke="black" stroke-width="0.302965"/>
<line x1="92.5439" y1="45.0117" x2="94.3617" y2="42.285" stroke="black" stroke-width="0.302965"/>
<path d="M94.1852 42.3698L97.8208 44.794" stroke="black" stroke-width="0.302965"/>
<path d="M97.6696 44.7931L98.6184 41.9642" stroke="black" stroke-width="0.302965"/>
<line y1="-0.151482" x2="3.27707" y2="-0.151482" transform="matrix(-0.5547 -0.83205 -0.83205 0.5547 104.645 45.0977)" stroke="black" stroke-width="0.302965"/>
<path d="M103.127 42.3717L99.4917 44.7959" stroke="black" stroke-width="0.302965"/>
<path d="M99.6449 44.795L98.696 41.9661" stroke="black" stroke-width="0.302965"/>
<line y1="-0.151482" x2="3.27707" y2="-0.151482" transform="matrix(-0.5547 -0.83205 -0.83205 0.5547 112.217 45.0977)" stroke="black" stroke-width="0.302965"/>
<path d="M110.703 42.3717L107.068 44.7959" stroke="black" stroke-width="0.302965"/>
<path d="M107.219 44.795L106.27 41.9661" stroke="black" stroke-width="0.302965"/>
<line y1="-0.151482" x2="3.27707" y2="-0.151482" transform="matrix(-0.5547 -0.83205 -0.83205 0.5547 118.277 45.0977)" stroke="black" stroke-width="0.302965"/>
<path d="M116.76 42.3717L113.124 44.7959" stroke="black" stroke-width="0.302965"/>
<path d="M113.278 44.795L112.329 41.9661" stroke="black" stroke-width="0.302965"/>
<line x1="119.37" y1="45.0097" x2="121.188" y2="42.283" stroke="black" stroke-width="0.302965"/>
<path d="M121.011 42.3678L124.647 44.792" stroke="black" stroke-width="0.302965"/>
<path d="M124.496 44.7911L125.445 41.9622" stroke="black" stroke-width="0.302965"/>
<line y1="-0.151482" x2="3.27707" y2="-0.151482" transform="matrix(-0.5547 -0.83205 -0.83205 0.5547 131.471 45.0957)" stroke="black" stroke-width="0.302965"/>
<path d="M129.953 42.3698L126.318 44.794" stroke="black" stroke-width="0.302965"/>
<path d="M126.471 44.7931L125.522 41.9642" stroke="black" stroke-width="0.302965"/>
<line y1="-0.151482" x2="3.27707" y2="-0.151482" transform="matrix(-0.5547 -0.83205 -0.83205 0.5547 139.043 45.0957)" stroke="black" stroke-width="0.302965"/>
<path d="M137.53 42.3698L133.894 44.794" stroke="black" stroke-width="0.302965"/>
<path d="M134.045 44.7931L133.096 41.9642" stroke="black" stroke-width="0.302965"/>
<line y1="-0.151482" x2="3.27707" y2="-0.151482" transform="matrix(-0.5547 -0.83205 -0.83205 0.5547 145.104 45.0957)" stroke="black" stroke-width="0.302965"/>
<path d="M143.586 42.3698L139.951 44.794" stroke="black" stroke-width="0.302965"/>
<path d="M140.104 44.7931L139.155 41.9642" stroke="black" stroke-width="0.302965"/>
<line x1="147.415" y1="45.0117" x2="149.233" y2="42.285" stroke="black" stroke-width="0.302965"/>
<path d="M149.056 42.3698L152.692 44.794" stroke="black" stroke-width="0.302965"/>
<path d="M152.541 44.7931L153.49 41.9642" stroke="black" stroke-width="0.302965"/>
<line y1="-0.151482" x2="3.27707" y2="-0.151482" transform="matrix(-0.5547 -0.83205 -0.83205 0.5547 159.516 45.0977)" stroke="black" stroke-width="0.302965"/>
<path d="M157.998 42.3717L154.363 44.7959" stroke="black" stroke-width="0.302965"/>
<path d="M154.516 44.795L153.567 41.9661" stroke="black" stroke-width="0.302965"/>
<line y1="-0.151482" x2="3.27707" y2="-0.151482" transform="matrix(-0.5547 -0.83205 -0.83205 0.5547 167.088 45.0977)" stroke="black" stroke-width="0.302965"/>
<path d="M165.575 42.3717L161.939 44.7959" stroke="black" stroke-width="0.302965"/>
<path d="M162.09 44.795L161.141 41.9661" stroke="black" stroke-width="0.302965"/>
<line y1="-0.151482" x2="3.27707" y2="-0.151482" transform="matrix(-0.5547 -0.83205 -0.83205 0.5547 173.148 45.0977)" stroke="black" stroke-width="0.302965"/>
<path d="M171.631 42.3717L167.996 44.7959" stroke="black" stroke-width="0.302965"/>
<path d="M168.149 44.795L167.2 41.9661" stroke="black" stroke-width="0.302965"/>
<line x1="120.525" y1="28.5809" x2="123.295" y2="24.426" stroke="black" stroke-width="0.461661"/>
<path d="M123.025 24.5558L128.565 28.2499" stroke="black" stroke-width="0.461661"/>
<path d="M128.335 28.2452L129.781 23.9345" stroke="black" stroke-width="0.461661"/>
<line y1="-0.23083" x2="4.99363" y2="-0.23083" transform="matrix(-0.5547 -0.83205 -0.83205 0.5547 138.961 28.7148)" stroke="black" stroke-width="0.461661"/>
<path d="M136.653 24.5578L131.113 28.2518" stroke="black" stroke-width="0.461661"/>
<path d="M131.343 28.2511L129.897 23.9404" stroke="black" stroke-width="0.461661"/>
<line y1="-0.23083" x2="4.99363" y2="-0.23083" transform="matrix(-0.5547 -0.83205 -0.83205 0.5547 150.502 28.7148)" stroke="black" stroke-width="0.461661"/>
<path d="M148.196 24.5578L142.656 28.2518" stroke="black" stroke-width="0.461661"/>
<path d="M142.884 28.2511L141.438 23.9404" stroke="black" stroke-width="0.461661"/>
<line y1="-0.23083" x2="4.99363" y2="-0.23083" transform="matrix(-0.5547 -0.83205 -0.83205 0.5547 159.734 28.7148)" stroke="black" stroke-width="0.461661"/>
<path d="M157.426 24.5578L151.886 28.2518" stroke="black" stroke-width="0.461661"/>
<path d="M152.118 28.2511L150.673 23.9404" stroke="black" stroke-width="0.461661"/>
</svg>
