<svg width="57" height="62" viewBox="0 0 57 62" fill="none" xmlns="http://www.w3.org/2000/svg">
<path d="M6.77457 54.6065C6.33546 54.2715 6.25103 53.644 6.58599 53.2049L44.0732 4.06168C44.4082 3.62257 45.0357 3.53814 45.4748 3.8731L49.5579 6.98773C49.997 7.32269 50.0814 7.9502 49.7465 8.38931L12.2592 57.5325C11.9243 57.9717 11.2968 58.0561 10.8576 57.7211L6.77457 54.6065Z" fill="black"/>
<rect x="4.7959" y="41.2939" width="24.3173" height="7.01646" rx="2" transform="rotate(38.8037 4.7959 41.2939)" fill="black"/>
<rect x="37.5117" width="24.3173" height="7.01646" rx="2" transform="rotate(38.8037 37.5117 0)" fill="black"/>
<rect x="8.32129" y="37.1943" width="24.3173" height="3.92009" rx="1.96005" transform="rotate(38.8037 8.32129 37.1943)" fill="black"/>
<rect x="33.1426" y="7.13477" width="24.3173" height="3.92009" rx="1.96005" transform="rotate(38.8037 33.1426 7.13477)" fill="black"/>
</svg>
